<mxfile host="app.diagrams.net" modified="2024-04-09T03:34:30.569Z" agent="Mozilla/5.0 (Windows NT 10.0; Win64; x64) AppleWebKit/537.36 (KHTML, like Gecko) Chrome/123.0.0.0 Safari/537.36" etag="Fmng1ZdCBj6kQHn-qq3c" version="24.2.2" type="github">
  <diagram name="Page-1" id="YHnzCbg9CkggHjTMvFc3">
    <mxGraphModel dx="1050" dy="557" grid="1" gridSize="10" guides="1" tooltips="1" connect="1" arrows="1" fold="1" page="1" pageScale="1" pageWidth="850" pageHeight="1100" math="0" shadow="0">
      <root>
        <mxCell id="0" />
        <mxCell id="1" parent="0" />
        <mxCell id="m0lid5TEmWFEUcOBCwKi-1" value="&lt;font style=&quot;font-size: 22px;&quot;&gt;x&lt;sub&gt;1&lt;/sub&gt;&lt;/font&gt;" style="ellipse;whiteSpace=wrap;html=1;aspect=fixed;" vertex="1" parent="1">
          <mxGeometry x="80" y="120" width="50" height="50" as="geometry" />
        </mxCell>
        <mxCell id="m0lid5TEmWFEUcOBCwKi-2" value="&lt;font style=&quot;font-size: 22px;&quot;&gt;x&lt;sub&gt;2&lt;/sub&gt;&lt;/font&gt;" style="ellipse;whiteSpace=wrap;html=1;aspect=fixed;" vertex="1" parent="1">
          <mxGeometry x="80" y="190" width="50" height="50" as="geometry" />
        </mxCell>
        <mxCell id="m0lid5TEmWFEUcOBCwKi-3" value="&lt;font style=&quot;font-size: 22px;&quot;&gt;x&lt;sub&gt;n&lt;/sub&gt;&lt;/font&gt;" style="ellipse;whiteSpace=wrap;html=1;aspect=fixed;" vertex="1" parent="1">
          <mxGeometry x="80" y="300" width="50" height="50" as="geometry" />
        </mxCell>
        <mxCell id="m0lid5TEmWFEUcOBCwKi-4" value="&lt;font style=&quot;font-size: 22px;&quot;&gt;+&lt;/font&gt;" style="rounded=0;whiteSpace=wrap;html=1;" vertex="1" parent="1">
          <mxGeometry x="230" y="250" width="50" height="50" as="geometry" />
        </mxCell>
        <mxCell id="m0lid5TEmWFEUcOBCwKi-5" value="&lt;font style=&quot;font-size: 22px;&quot;&gt;Î¸&lt;/font&gt;" style="rounded=0;whiteSpace=wrap;html=1;" vertex="1" parent="1">
          <mxGeometry x="320" y="250" width="50" height="50" as="geometry" />
        </mxCell>
        <mxCell id="m0lid5TEmWFEUcOBCwKi-6" value="&lt;font style=&quot;font-size: 22px;&quot;&gt;b&lt;/font&gt;" style="ellipse;whiteSpace=wrap;html=1;aspect=fixed;" vertex="1" parent="1">
          <mxGeometry x="80" y="370" width="50" height="50" as="geometry" />
        </mxCell>
        <mxCell id="m0lid5TEmWFEUcOBCwKi-7" value="&lt;font style=&quot;font-size: 22px;&quot;&gt;...&lt;/font&gt;" style="text;html=1;align=center;verticalAlign=middle;whiteSpace=wrap;rounded=0;" vertex="1" parent="1">
          <mxGeometry x="75" y="250" width="60" height="30" as="geometry" />
        </mxCell>
        <mxCell id="m0lid5TEmWFEUcOBCwKi-8" value="" style="endArrow=none;html=1;rounded=0;exitX=1;exitY=0.5;exitDx=0;exitDy=0;entryX=0;entryY=0.5;entryDx=0;entryDy=0;" edge="1" parent="1" source="m0lid5TEmWFEUcOBCwKi-1" target="m0lid5TEmWFEUcOBCwKi-4">
          <mxGeometry width="50" height="50" relative="1" as="geometry">
            <mxPoint x="470" y="270" as="sourcePoint" />
            <mxPoint x="520" y="220" as="targetPoint" />
          </mxGeometry>
        </mxCell>
        <mxCell id="m0lid5TEmWFEUcOBCwKi-9" value="" style="endArrow=none;html=1;rounded=0;exitX=1;exitY=0.5;exitDx=0;exitDy=0;entryX=0;entryY=0.5;entryDx=0;entryDy=0;" edge="1" parent="1" source="m0lid5TEmWFEUcOBCwKi-2" target="m0lid5TEmWFEUcOBCwKi-4">
          <mxGeometry width="50" height="50" relative="1" as="geometry">
            <mxPoint x="470" y="270" as="sourcePoint" />
            <mxPoint x="520" y="220" as="targetPoint" />
          </mxGeometry>
        </mxCell>
        <mxCell id="m0lid5TEmWFEUcOBCwKi-10" value="" style="endArrow=none;html=1;rounded=0;exitX=1;exitY=0.5;exitDx=0;exitDy=0;entryX=0;entryY=0.5;entryDx=0;entryDy=0;" edge="1" parent="1" source="m0lid5TEmWFEUcOBCwKi-3" target="m0lid5TEmWFEUcOBCwKi-4">
          <mxGeometry width="50" height="50" relative="1" as="geometry">
            <mxPoint x="470" y="270" as="sourcePoint" />
            <mxPoint x="520" y="220" as="targetPoint" />
          </mxGeometry>
        </mxCell>
        <mxCell id="m0lid5TEmWFEUcOBCwKi-11" value="" style="endArrow=none;html=1;rounded=0;exitX=1;exitY=0.5;exitDx=0;exitDy=0;entryX=0;entryY=0.5;entryDx=0;entryDy=0;" edge="1" parent="1" source="m0lid5TEmWFEUcOBCwKi-6" target="m0lid5TEmWFEUcOBCwKi-4">
          <mxGeometry width="50" height="50" relative="1" as="geometry">
            <mxPoint x="470" y="270" as="sourcePoint" />
            <mxPoint x="520" y="220" as="targetPoint" />
          </mxGeometry>
        </mxCell>
        <mxCell id="m0lid5TEmWFEUcOBCwKi-15" value="" style="endArrow=none;html=1;rounded=0;exitX=1;exitY=0.5;exitDx=0;exitDy=0;entryX=0;entryY=0.5;entryDx=0;entryDy=0;" edge="1" parent="1" source="m0lid5TEmWFEUcOBCwKi-4" target="m0lid5TEmWFEUcOBCwKi-5">
          <mxGeometry width="50" height="50" relative="1" as="geometry">
            <mxPoint x="470" y="270" as="sourcePoint" />
            <mxPoint x="520" y="220" as="targetPoint" />
          </mxGeometry>
        </mxCell>
        <mxCell id="m0lid5TEmWFEUcOBCwKi-18" value="&lt;span style=&quot;font-size: 14px;&quot;&gt;w&lt;sub&gt;1&lt;/sub&gt;&lt;/span&gt;" style="text;html=1;align=center;verticalAlign=middle;whiteSpace=wrap;rounded=0;fontSize=22;" vertex="1" parent="1">
          <mxGeometry x="160" y="170" width="60" height="30" as="geometry" />
        </mxCell>
        <mxCell id="m0lid5TEmWFEUcOBCwKi-19" value="&lt;span style=&quot;font-size: 14px;&quot;&gt;w&lt;/span&gt;&lt;span style=&quot;font-size: 11.6667px;&quot;&gt;&lt;sub&gt;2&lt;/sub&gt;&lt;/span&gt;" style="text;html=1;align=center;verticalAlign=middle;whiteSpace=wrap;rounded=0;fontSize=22;" vertex="1" parent="1">
          <mxGeometry x="130" y="200" width="60" height="30" as="geometry" />
        </mxCell>
        <mxCell id="m0lid5TEmWFEUcOBCwKi-23" value="&lt;span style=&quot;font-size: 14px;&quot;&gt;w&lt;/span&gt;&lt;span style=&quot;font-size: 11.6667px;&quot;&gt;&lt;sub&gt;3&lt;/sub&gt;&lt;/span&gt;" style="text;html=1;align=center;verticalAlign=middle;whiteSpace=wrap;rounded=0;fontSize=22;" vertex="1" parent="1">
          <mxGeometry x="130" y="270" width="60" height="30" as="geometry" />
        </mxCell>
        <mxCell id="m0lid5TEmWFEUcOBCwKi-24" value="&lt;span style=&quot;font-size: 14px;&quot;&gt;1&lt;/span&gt;" style="text;html=1;align=center;verticalAlign=middle;whiteSpace=wrap;rounded=0;fontSize=22;" vertex="1" parent="1">
          <mxGeometry x="160" y="340" width="60" height="30" as="geometry" />
        </mxCell>
        <mxCell id="m0lid5TEmWFEUcOBCwKi-25" value="output" style="ellipse;whiteSpace=wrap;html=1;aspect=fixed;" vertex="1" parent="1">
          <mxGeometry x="410" y="250" width="50" height="50" as="geometry" />
        </mxCell>
        <mxCell id="m0lid5TEmWFEUcOBCwKi-26" value="" style="endArrow=none;html=1;rounded=0;exitX=1;exitY=0.5;exitDx=0;exitDy=0;entryX=0;entryY=0.5;entryDx=0;entryDy=0;" edge="1" parent="1" source="m0lid5TEmWFEUcOBCwKi-5" target="m0lid5TEmWFEUcOBCwKi-25">
          <mxGeometry width="50" height="50" relative="1" as="geometry">
            <mxPoint x="470" y="270" as="sourcePoint" />
            <mxPoint x="520" y="220" as="targetPoint" />
          </mxGeometry>
        </mxCell>
      </root>
    </mxGraphModel>
  </diagram>
</mxfile>
